<svg width="492" height="492" viewBox="0 0 492 492" fill="none" xmlns="http://www.w3.org/2000/svg">
<rect width="450" height="450" fill="black"/>
<rect x="52" y="52" width="430" height="430" stroke="black" stroke-width="20"/>
<path d="M320.41 136.116C315.816 109.999 272.959 90.5286 231.16 82.9059C192.01 75.7922 157.061 78.9597 139.928 91.2082C134.806 94.8774 131.843 98.9111 129.979 102.71C129.648 103.082 129.202 103.292 128.905 103.705C90.9864 156.477 73.8248 222.365 80.5754 289.237L81.4008 297.376C83.9077 321.479 95.8923 343.127 114.27 356.749C119.005 360.274 124.516 362.075 130.099 362.075C133.695 362.075 137.319 361.319 140.772 359.803C150.072 355.715 156.517 346.629 157.613 336.048L160.874 303.559C193.748 297.541 227.877 301.024 258.817 313.506L261.676 341.687C262.957 354.235 270.726 364.659 281.948 368.895C285.33 370.17 288.841 370.797 292.322 370.797C299.678 370.797 306.913 368.02 312.574 362.779L336.721 340.677C358.401 320.511 370.833 291.208 370.833 260.29C370.833 254.851 370.384 249.076 369.509 243.158C365.315 214.539 354.62 186.84 338.584 163.028L320.41 136.116ZM225.933 111.602C266.188 118.936 287.742 134.039 291.345 140.205C285.877 144.627 261.652 150.758 222.146 143.559C181.89 136.233 160.329 121.129 156.732 114.963C162.201 110.541 186.405 104.411 225.933 111.602ZM129.596 331.712C118.922 322.862 111.979 309.403 110.42 294.399L109.601 286.303C104.44 235.226 115.583 183.099 140.304 139.95C149.695 148.661 163.342 156.056 178.797 161.835C153.521 199.144 137.639 243.025 132.979 289.422L129.596 331.712ZM164.685 273.404C171.173 236.524 185.504 201.929 206.771 172.464L208.191 170.498C210.364 170.979 212.541 171.396 214.719 171.815L218.592 178.866C235.814 210.633 247.584 244.895 254.155 280.92C225.303 271.918 194.681 269.296 164.685 273.404ZM341.667 260.29C341.667 283.141 332.624 304.66 316.944 319.243L292.391 341.645C292.171 341.638 290.931 341.075 290.696 338.74L287.492 307.116C282.868 260.573 270.109 216.469 249.703 175.688C251.862 175.761 254.158 176.009 256.254 176.009C276.8 176.009 293.868 172.347 305.125 165.593L314.402 179.334C328.009 199.536 337.089 223.062 340.656 247.409C341.325 251.938 341.667 256.274 341.667 260.29Z" fill="#F3CE49"/>
</svg>
